<?xml version="1.0" encoding="UTF-8" standalone="no"?>
<!-- Created with Inkscape (http://www.inkscape.org/) -->

<svg
   xmlns:dc="http://purl.org/dc/elements/1.1/"
   xmlns:cc="http://creativecommons.org/ns#"
   xmlns:rdf="http://www.w3.org/1999/02/22-rdf-syntax-ns#"
   xmlns:svg="http://www.w3.org/2000/svg"
   xmlns="http://www.w3.org/2000/svg"
   xmlns:sodipodi="http://sodipodi.sourceforge.net/DTD/sodipodi-0.dtd"
   xmlns:inkscape="http://www.inkscape.org/namespaces/inkscape"
   width="87.860107mm"
   height="32.922737mm"
   viewBox="0 0 87.860107 32.922737"
   version="1.1"
   id="svg6017"
   inkscape:version="0.92.1 r"
   sodipodi:docname="usu_logo_white.svg"
   inkscape:export-filename="/home/jhstagge/Downloads/shiny_examples/shiny-apps-master/my_example4/www/img/usu_logo_white_yup.png"
   inkscape:export-xdpi="34.717644"
   inkscape:export-ydpi="34.717644">
  <defs
     id="defs6011">
    <clipPath
       clipPathUnits="userSpaceOnUse"
       id="clipPath444">
      <path
         d="M 0,0 H 612 V 792 H 0 Z"
         id="path442"
         inkscape:connector-curvature="0" />
    </clipPath>
    <clipPath
       clipPathUnits="userSpaceOnUse"
       id="clipPath422">
      <path
         d="M 0,0 H 612 V 792 H 0 Z"
         id="path420"
         inkscape:connector-curvature="0" />
    </clipPath>
    <clipPath
       clipPathUnits="userSpaceOnUse"
       id="clipPath344">
      <path
         d="M 0,0 H 612 V 792 H 0 Z"
         id="path342"
         inkscape:connector-curvature="0" />
    </clipPath>
    <clipPath
       clipPathUnits="userSpaceOnUse"
       id="clipPath296">
      <path
         d="M 0,0 H 612 V 792 H 0 Z"
         id="path294"
         inkscape:connector-curvature="0" />
    </clipPath>
  </defs>
  <sodipodi:namedview
     id="base"
     pagecolor="#ffffff"
     bordercolor="#666666"
     borderopacity="1.0"
     inkscape:pageopacity="0.0"
     inkscape:pageshadow="2"
     inkscape:zoom="1.8127168"
     inkscape:cx="169.99972"
     inkscape:cy="-0.79401287"
     inkscape:document-units="mm"
     inkscape:current-layer="layer1"
     showgrid="false"
     fit-margin-top="0"
     fit-margin-left="0"
     fit-margin-right="0"
     fit-margin-bottom="0"
     inkscape:window-width="1440"
     inkscape:window-height="849"
     inkscape:window-x="0"
     inkscape:window-y="25"
     inkscape:window-maximized="1" />
  <metadata
     id="metadata6014">
    <rdf:RDF>
      <cc:Work
         rdf:about="">
        <dc:format>image/svg+xml</dc:format>
        <dc:type
           rdf:resource="http://purl.org/dc/dcmitype/StillImage" />
        <dc:title></dc:title>
      </cc:Work>
    </rdf:RDF>
  </metadata>
  <g
     inkscape:label="Layer 1"
     inkscape:groupmode="layer"
     id="layer1"
     transform="translate(-47.625075,-42.751107)">
    <g
       id="g6827"
       style="fill:#ffffff">
      <g
         transform="matrix(0.35277777,0,0,-0.35277777,77.249553,63.873294)"
         id="g306"
         style="fill:#ffffff">
        <path
           inkscape:connector-curvature="0"
           id="path308"
           style="fill:#ffffff;fill-opacity:1;fill-rule:nonzero;stroke:none"
           d="m 0,0 -4.182,1.346 -0.187,10.7 -2.713,0.713 c -0.187,1.842 -0.937,3.869 -3.214,4.526 -2.276,0.653 -3.559,-0.702 -3.559,-0.702 5.958,0.593 4.152,-14.302 4.152,-14.302 l -4.303,0.997 -4.655,-2.993 0.001,-5.506 c 0,0 4.737,3.393 4.608,3.348 -0.051,-0.016 30.224,-7.619 30.224,-7.619 l -0.147,4.474 -4.029,1.027 c 0,0 -0.09,3.287 -0.217,6.852 -0.12,3.565 -0.494,7.187 -2.693,7.932 C 6.886,11.537 5.23,10.085 5.23,10.085 10.406,9.931 8.405,-2.41 8.405,-2.41 L 5.43,-1.758 4.965,8.405 c 0,0 -2.543,0.837 -2.574,0.869 -0.03,0.03 0.031,3.934 -2.477,4.68 -2.512,0.742 -4.869,-1.457 -4.072,-1.303 C 3.024,14.022 0,0 0,0" />
      </g>
      <g
         transform="matrix(0.35277777,0,0,-0.35277777,73.207813,65.28123)"
         id="g310"
         style="fill:#ffffff">
        <path
           inkscape:connector-curvature="0"
           id="path312"
           style="fill:#ffffff;fill-opacity:1;fill-rule:nonzero;stroke:none"
           d="m 0,0 c -0.359,-0.371 -1.257,-0.715 -1.207,-2.456 0.054,-1.77 -1.158,-3.196 -2.263,-3.269 l 0.014,3.893 3.446,2.937 C -0.01,1.105 0.557,0.577 0,0" />
      </g>
      <g
         transform="matrix(0.35277777,0,0,-0.35277777,76.218807,66.073569)"
         id="g314"
         style="fill:#ffffff">
        <path
           inkscape:connector-curvature="0"
           id="path316"
           style="fill:#ffffff;fill-opacity:1;fill-rule:nonzero;stroke:none"
           d="m 0,0 c -0.333,-0.344 -1.166,-0.665 -1.118,-2.274 0.048,-1.633 -1.101,-2.787 -2.118,-2.855 l 0.033,3.433 3.192,2.712 C -0.011,1.016 0.513,0.533 0,0" />
      </g>
      <g
         transform="matrix(0.35277777,0,0,-0.35277777,81.991345,67.449332)"
         id="g318"
         style="fill:#ffffff">
        <path
           inkscape:connector-curvature="0"
           id="path320"
           style="fill:#ffffff;fill-opacity:1;fill-rule:nonzero;stroke:none"
           d="m 0,0 c -0.311,-0.329 -1.098,-0.626 -1.055,-2.146 0.049,-1.547 -1.021,-2.681 -1.984,-2.746 l 0.019,3.289 3.012,2.567 C -0.008,0.964 0.489,0.505 0,0" />
      </g>
      <g
         transform="matrix(0.35277777,0,0,-0.35277777,79.299474,66.813873)"
         id="g322"
         style="fill:#ffffff">
        <path
           inkscape:connector-curvature="0"
           id="path324"
           style="fill:#ffffff;fill-opacity:1;fill-rule:nonzero;stroke:none"
           d="m 0,0 c -0.334,-0.344 -1.165,-0.664 -1.118,-2.268 0.05,-1.637 -1.08,-2.839 -2.099,-2.906 l 0.02,3.478 3.189,2.717 C -0.008,1.021 0.513,0.534 0,0" />
      </g>
      <g
         transform="matrix(0.35277777,0,0,-0.35277777,70.889319,44.138582)"
         id="g326"
         style="fill:#ffffff">
        <path
           inkscape:connector-curvature="0"
           id="path328"
           style="fill:#ffffff;fill-opacity:1;fill-rule:nonzero;stroke:none"
           d="M 0,0 3.394,3.933 8.341,2.223 9.031,1.261 5.282,2.387 5.043,0.068 6.239,-0.334 1.553,-14.797 l -0.925,0.217 -0.873,-2.41 6.586,-2.293 0.297,2.593 -1.396,0.497 1.497,5.787 11.921,-4.402 8.257,-9.598 -0.808,0.113 0.379,-1.767 5.176,-2.016 -0.053,-1.24 -36.673,12.668 -17.085,-16.1 -0.673,0.571 6.016,6.012 7.087,10.433 4.551,3.549 -1.186,-3.173 -0.983,-0.876 -0.684,-2.043 2.592,2.174 0.953,0.757 5.629,14.959 0.714,0.495 v 1.347 z" />
      </g>
      <g
         transform="matrix(0.35277777,0,0,-0.35277777,83.149335,57.806005)"
         id="g330"
         style="fill:#ffffff">
        <path
           inkscape:connector-curvature="0"
           id="path332"
           style="fill:#ffffff;fill-opacity:1;fill-rule:nonzero;stroke:none"
           d="m 0,0 5.065,4.026 -44.643,16.106 -24.559,-22.858 4.775,-2.682 0.167,1.217 -0.84,0.675 21.675,18.353 38.356,-12.851 z" />
      </g>
      <g
         transform="matrix(0.35277777,0,0,-0.35277777,74.075855,45.073019)"
         id="g334"
         style="fill:#ffffff">
        <path
           inkscape:connector-curvature="0"
           id="path336"
           style="fill:#ffffff;fill-opacity:1;fill-rule:nonzero;stroke:none"
           d="M 0,0 -1.488,-5.483 6.516,-8.136 Z" />
      </g>
      <g
         id="g338"
         transform="matrix(0.35277777,0,0,-0.35277777,-41.105766,170.79117)"
         style="fill:#ffffff">
        <g
           clip-path="url(#clipPath344)"
           id="g340"
           style="fill:#ffffff">
          <g
             transform="translate(315.5883,355.665)"
             id="g346"
             style="fill:#ffffff">
            <path
               inkscape:connector-curvature="0"
               id="path348"
               style="fill:#ffffff;fill-opacity:1;fill-rule:nonzero;stroke:none"
               d="M 0,0 -2.712,-6.351 -5.444,-8.62 c 0,0 0.95,1.768 5.444,8.62" />
          </g>
          <g
             transform="translate(310.5594,308.1239)"
             id="g350"
             style="fill:#ffffff">
            <path
               inkscape:connector-curvature="0"
               id="path352"
               style="fill:#ffffff;fill-opacity:1;fill-rule:nonzero;stroke:none"
               d="m 0,0 c 0,0 0.091,8.712 0.111,9.048 0.02,0.339 -0.199,1.405 -0.514,1.878 -0.314,0.472 -0.897,0.942 -1.509,0.845 -0.74,-0.12 -1.693,-0.845 -1.987,-2.244 C -4.193,8.129 -3.973,-2.135 -4.046,-2.391 Z" />
          </g>
          <g
             transform="translate(304.8213,304.7737)"
             id="g354"
             style="fill:#ffffff">
            <path
               inkscape:connector-curvature="0"
               id="path356"
               style="fill:#ffffff;fill-opacity:1;fill-rule:nonzero;stroke:none"
               d="M 0,0 C 0,0 -0.005,7.695 0,8.352 0.007,9.013 -0.161,9.86 -0.589,10.231 -1.016,10.599 -1.691,10.89 -2.537,10.042 -3.383,9.198 -3.606,8.279 -3.531,-2.057 Z" />
          </g>
          <g
             transform="translate(300.1503,302.0543)"
             id="g358"
             style="fill:#ffffff">
            <path
               inkscape:connector-curvature="0"
               id="path360"
               style="fill:#ffffff;fill-opacity:1;fill-rule:nonzero;stroke:none"
               d="M 0,0 C 0,0 0.006,5.754 0,6.55 -0.009,7.344 -0.147,8.129 -0.48,8.462 -0.809,8.791 -1.95,8.864 -2.464,7.506 -2.98,6.142 -2.943,0.738 -2.943,-1.728 Z" />
          </g>
          <g
             transform="translate(385.9755,274.0596)"
             id="g362"
             style="fill:#ffffff">
            <path
               inkscape:connector-curvature="0"
               id="path364"
               style="fill:#ffffff;fill-opacity:1;fill-rule:nonzero;stroke:none"
               d="m 0,0 -1.709,-0.273 -10.787,6.345 -4.222,0.219 -1.766,1.6 -7.504,5.324 3.007,-7.942 3.697,-2.43 c 1.987,-0.769 6.005,-3.788 6.694,-4.424 0.69,-0.631 -3.824,0.426 -4.983,0.589 -1.16,0.165 -9.607,1.208 -9.607,1.208 l -8.224,-0.263 -0.169,6.017 -4.336,0.993 c -0.523,4.3 -3.216,4.749 -4.617,4.618 -1.402,-0.133 -1.57,-0.768 -1.57,-0.768 1.757,0.578 3.271,0.019 4.297,-1.178 1.028,-1.198 0.956,-2.689 0.956,-2.689 l -0.095,-6.824 h -2.504 v 5.925 c 0.468,-0.035 2.187,0.373 1.347,2.468 -0.844,2.094 -3.815,2.521 -4.432,1.64 -0.616,-0.876 -0.243,-1.64 -0.243,-1.64 l -1.961,0.448 c -0.879,5.083 -4.189,4.785 -5.141,4.577 -0.953,-0.203 -1.178,-0.728 -1.178,-0.728 2.393,0.711 3.74,-0.391 4.507,-1.44 0.765,-1.044 0.726,-2.373 0.726,-2.373 l 10e-4,-8.896 h -2.599 v 8.111 c 0.749,0.018 2.17,0.392 1.666,2.114 -0.507,1.719 -2.71,2.636 -4.112,2.204 -1.401,-0.431 -1.087,-1.945 -1.087,-1.945 l -2.317,0.581 c -0.598,4.879 -4.151,5.157 -5.343,4.822 -1.198,-0.338 -1.348,-1.121 -1.348,-1.121 0.466,0.483 2.449,1.046 4.132,-0.187 1.682,-1.232 1.643,-3.777 1.643,-3.777 l 0.113,-10.82 h -3.123 v 9.814 c 1.104,0.166 2.261,0.241 2.32,1.848 0.054,1.605 -1.834,3.158 -3.815,3.007 -1.982,-0.147 -1.764,-1.995 -1.764,-1.995 l -5.249,0.979 -0.051,-13.593 h -19.533 l -5.3,-0.788 -2.896,5.057 2.993,4.908 4.809,-2.307 0.051,0.882 -6.479,5.94 -1.276,-5.005 -5.498,-2.7 -3.633,-8.148 -8.587,0.198 c -0.637,1.323 -1.816,7.309 -1.816,7.309 l 3.289,6.039 -3.191,-1.914 -0.541,-1.324 -5.005,-2.704 -2.406,-4.465 -6.77,-2.453 -1.916,0.194 c 19.486,15.513 19.485,14.383 19.485,14.383 4.368,-1.471 6.283,-2.059 8.196,-1.032 1.916,1.032 2.258,1.178 4.369,1.427 2.111,0.242 4.761,2.55 4.761,2.55 l 7.147,-5.47 0.064,2.329 c -0.663,0.355 -0.546,1.073 -0.726,2.055 -0.184,0.986 -0.61,1.337 -0.9,1.593 -0.288,0.258 -0.288,0.565 -0.159,0.693 0.127,0.129 0.598,0.301 0.598,0.301 -0.182,-0.609 0.149,-0.609 0.715,-1.058 0.566,-0.449 0.576,-1.444 0.576,-1.517 0,-0.075 0.033,-0.623 0.632,-1.307 0.598,-0.682 1.294,-0.619 1.294,-0.619 l -0.277,2.244 2.524,1.199 c -0.45,1.755 -0.556,1.583 -0.909,1.999 -0.353,0.418 -0.235,0.652 -0.077,0.759 0.162,0.109 0.739,0.255 0.739,0.255 0,0 -0.374,-0.341 0.258,-0.789 0.631,-0.448 0.651,-0.759 0.77,-1.081 0.119,-0.32 -0.031,-1.346 0.631,-2.053 0.662,-0.705 1.185,-0.631 1.185,-0.631 l -0.159,2.653 2.513,1.187 c -0.225,1.37 -0.513,1.55 -0.652,1.745 -0.14,0.192 -0.493,0.23 -0.761,0.572 -0.268,0.348 0.117,0.589 0.117,0.589 l 1.221,0.592 c -0.376,-0.739 0.224,-0.87 0.663,-1.317 0.438,-0.449 0.566,-1.196 0.555,-1.635 -0.012,-0.437 0.16,-1.199 0.729,-1.84 0.565,-0.641 1.315,-0.662 1.315,-0.662 l -0.085,3.39 2.082,0.908 c 0,0 0.044,1.187 -0.372,1.754 -0.417,0.567 -0.588,0.406 -0.854,0.718 -0.269,0.309 -0.086,0.79 0.05,0.864 0.141,0.076 1.082,0.44 1.082,0.44 -0.085,-0.471 0.159,-0.663 0.406,-0.868 0.247,-0.2 0.513,-0.393 0.738,-1.056 0.223,-0.665 -0.096,-1.248 0.529,-2.462 0.625,-1.211 1.525,-1.425 1.525,-1.425 v 3.531 l 1.217,0.624 -3.789,2.652 -18.319,-9.088 -0.072,4.672 17.69,10.041 3.644,-2.279 -0.221,23.43 -19.752,-16.221 -0.736,2.943 21.114,18.17 38.328,-12.983 -1.213,-3.129 -35.646,11.7 -0.054,-38.173 3.924,-0.944 c -0.299,3.061 2.643,4.154 5.534,3.173 2.887,-0.983 3.925,-4.043 3.925,-4.043 0.49,2.248 3.21,2.722 5.645,1.624 2.435,-1.092 3.521,-3.535 3.521,-3.535 0.748,2.245 3.317,2.512 5.933,1.124 2.619,-1.388 3.209,-4.651 3.209,-4.651 l 3.419,-0.802 -0.107,4.221 8.766,5.134 3.689,-2.301 c 1.763,0 4.436,-0.803 5.129,-1.227 0.697,-0.429 1.339,-1.762 3.584,-1.762 2.244,0 6.415,-2.193 6.415,-2.193 L -4.026,4.616 5.597,-1.741 2.87,-2.01 Z m -78.485,9.924 c 0.736,-0.865 1.93,-0.372 2.662,1.105 0.736,1.476 0.736,3.373 0,4.239 -0.734,0.864 -1.929,0.366 -2.662,-1.107 -0.736,-1.478 -0.735,-3.376 0,-4.237 m -4.936,-1.959 c 0.615,-0.812 1.637,-0.373 2.283,0.991 0.642,1.355 0.669,3.12 0.054,3.932 -0.617,0.811 -1.636,0.369 -2.28,-0.989 -0.646,-1.359 -0.671,-3.122 -0.057,-3.934 m -4.286,-1.401 c 0.45,-0.798 1.245,-0.544 1.781,0.561 0.531,1.107 0.603,2.65 0.153,3.447 -0.446,0.795 -1.245,0.541 -1.776,-0.565 -0.534,-1.108 -0.603,-2.649 -0.158,-3.443" />
          </g>
          <g
             transform="translate(369.7927,310.7299)"
             id="g366"
             style="fill:#ffffff">
            <path
               inkscape:connector-curvature="0"
               id="path368"
               style="fill:#ffffff;fill-opacity:1;fill-rule:nonzero;stroke:none"
               d="m 0,0 v -10.15 c 0,-0.928 0.076,-1.874 0.546,-2.587 0.638,-0.943 1.753,-1.394 2.911,-1.394 3.003,0 3.412,2.44 3.412,4.143 V 0 h 4.618 v -9.894 c 0,-1.892 -0.265,-3.948 -1.329,-5.205 -1.658,-2.039 -4.711,-2.435 -6.864,-2.435 -8.074,0 -8.096,5.013 -8.096,7.804 L -4.78,0 Z" />
          </g>
          <g
             transform="translate(390.8424,305.48)"
             id="g370"
             style="fill:#ffffff">
            <path
               inkscape:connector-curvature="0"
               id="path372"
               style="fill:#ffffff;fill-opacity:1;fill-rule:nonzero;stroke:none"
               d="m 0,0 v -2.851 h -2.867 v -4.115 c 0.022,-1.464 0.022,-2.119 1.725,-2.119 0.364,0 0.576,0 1.114,0.061 v -2.794 c -0.589,-0.092 -1.368,-0.206 -2.89,-0.206 -3.547,0 -4.254,1.177 -4.254,3.476 v 5.697 H -8.836 V 0 h 1.734 v 1.844 l 4.285,1.705 V 0 Z" />
          </g>
          <g
             transform="translate(443.0995,305.48)"
             id="g374"
             style="fill:#ffffff">
            <path
               inkscape:connector-curvature="0"
               id="path376"
               style="fill:#ffffff;fill-opacity:1;fill-rule:nonzero;stroke:none"
               d="m 0,0 v -2.851 h -2.864 v -4.115 c 0.023,-1.464 0.023,-2.119 1.729,-2.119 0.365,0 0.572,0 1.116,0.061 v -2.794 c -0.594,-0.092 -1.372,-0.206 -2.885,-0.206 -3.557,0 -4.263,1.177 -4.263,3.476 v 5.697 H -8.832 V 0 h 1.734 v 1.844 l 4.282,1.705 V 0 Z" />
          </g>
          <g
             transform="translate(465.5272,305.48)"
             id="g378"
             style="fill:#ffffff">
            <path
               inkscape:connector-curvature="0"
               id="path380"
               style="fill:#ffffff;fill-opacity:1;fill-rule:nonzero;stroke:none"
               d="m 0,0 v -2.851 h -2.86 v -4.115 c 0.023,-1.464 0.023,-2.119 1.728,-2.119 0.352,0 0.567,0 1.111,0.061 v -2.794 c -0.593,-0.092 -1.37,-0.206 -2.89,-0.206 -3.553,0 -4.258,1.177 -4.258,3.476 v 5.697 H -8.833 V 0 h 1.731 v 1.844 l 4.286,1.705 V 0 Z" />
          </g>
          <g
             transform="translate(399.6613,293.6404)"
             id="g382"
             style="fill:#ffffff">
            <path
               inkscape:connector-curvature="0"
               id="path384"
               style="fill:#ffffff;fill-opacity:1;fill-rule:nonzero;stroke:none"
               d="M 0,0 V 1.681 C -0.539,0.874 -1.451,-0.24 -3.885,-0.24 c -2.915,0 -4.195,1.585 -4.195,3.693 0,3.246 3.008,4.431 8.12,4.216 0.024,1.276 -0.143,2.461 -1.491,2.461 -0.824,0 -1.606,-0.447 -1.584,-1.799 h -4.261 c 0.027,0.545 0.027,1.563 0.919,2.487 0.923,0.944 2.772,1.496 4.926,1.496 1.069,0 3.336,-0.149 4.593,-1.375 C 3.9,10.206 4.18,9.093 4.18,7.81 V 2.274 l -0.009,-2.28 z m -3.698,3.855 c 0,-0.871 0.564,-1.607 1.629,-1.607 0.481,0 1.309,0.193 1.752,1.14 C 0.04,4.146 0.04,5.114 0.019,5.614 -1.879,5.585 -3.698,5.568 -3.698,3.855" />
          </g>
          <g
             transform="translate(451.8557,293.6404)"
             id="g386"
             style="fill:#ffffff">
            <path
               inkscape:connector-curvature="0"
               id="path388"
               style="fill:#ffffff;fill-opacity:1;fill-rule:nonzero;stroke:none"
               d="M 0,0 V 1.681 C -0.547,0.874 -1.456,-0.24 -3.898,-0.24 c -2.908,0 -4.188,1.585 -4.188,3.693 0,3.246 3.009,4.431 8.124,4.216 0.023,1.276 -0.142,2.461 -1.494,2.461 -0.829,0 -1.608,-0.447 -1.585,-1.799 h -4.26 c 0.022,0.545 0.022,1.563 0.926,2.487 0.926,0.944 2.772,1.496 4.919,1.496 1.07,0 3.341,-0.149 4.594,-1.375 C 3.898,10.206 4.181,9.093 4.181,7.81 V 2.274 l -0.013,-2.28 z m -3.704,3.855 c 0,-0.871 0.568,-1.607 1.635,-1.607 0.469,0 1.302,0.193 1.754,1.14 C 0.038,4.146 0.038,5.114 0.013,5.614 -1.878,5.585 -3.704,5.568 -3.704,3.855" />
          </g>
          <g
             transform="translate(404.8448,310.7299)"
             id="g390"
             style="fill:#ffffff">
            <path
               inkscape:connector-curvature="0"
               id="path392"
               style="fill:#ffffff;fill-opacity:1;fill-rule:nonzero;stroke:none"
               d="m 0,0 h 4.496 v -6.509 c 0.471,0.48 1.561,1.559 3.716,1.559 1.157,0 2.347,-0.3 3.314,-1.201 1.179,-1.063 1.179,-2.366 1.179,-4.027 v -6.911 H 8.284 v 6.393 c 0,0.994 0,2.934 -1.852,2.934 -1.415,0 -1.745,-1.187 -1.867,-1.658 -0.117,-0.545 -0.117,-1.305 -0.117,-2.297 v -5.372 H 0 Z" />
          </g>
          <g
             transform="translate(423.6514,299.0854)"
             id="g394"
             style="fill:#ffffff">
            <path
               inkscape:connector-curvature="0"
               id="path396"
               style="fill:#ffffff;fill-opacity:1;fill-rule:nonzero;stroke:none"
               d="m 0,0 c 0.023,-0.689 0.071,-2.653 2.894,-2.653 0.396,0 2.53,0 2.53,1.939 0,0.81 -0.33,1.351 -1.467,1.662 l -4.194,1.091 c -1.18,0.306 -4.234,1.109 -4.234,4.681 0,2.77 2.083,5.352 7.194,5.352 6.682,0 6.961,-3.62 6.983,-5.443 H 4.903 c 0,0.523 0.028,2.369 -2.246,2.369 -1.384,0 -2.249,-0.779 -2.249,-1.803 0,-1.253 1.039,-1.561 1.726,-1.751 L 5.326,4.619 c 2.278,-0.596 4.971,-1.303 4.971,-4.927 0,-3.813 -3.263,-5.518 -7.546,-5.518 -1.776,0 -4.641,0.286 -6.21,2.04 C -4.702,-2.418 -4.732,-0.738 -4.75,0 Z" />
          </g>
          <g
             transform="translate(469.9622,298.6849)"
             id="g398"
             style="fill:#ffffff">
            <path
               inkscape:connector-curvature="0"
               id="path400"
               style="fill:#ffffff;fill-opacity:1;fill-rule:nonzero;stroke:none"
               d="m 0,0 c 0,-0.641 0,-2.893 2.265,-2.893 1.188,0 1.922,0.618 2.042,1.73 H 8.449 C 8.113,-4.146 5.322,-5.308 2.244,-5.308 c -4.14,0 -6.365,2.085 -6.365,6.019 0,3.976 1.934,6.559 6.321,6.559 3.314,0 4.847,-1.354 5.659,-3.035 C 8.374,3.223 8.521,2.08 8.521,0 Z M 4.33,2.416 C 4.283,3.096 4.14,4.897 2.2,4.897 0.259,4.897 0.093,2.977 0.043,2.416 Z" />
          </g>
          <g
             transform="translate(407.9469,280.4)"
             id="g402"
             style="fill:#ffffff">
            <path
               inkscape:connector-curvature="0"
               id="path404"
               style="fill:#ffffff;fill-opacity:1;fill-rule:nonzero;stroke:none"
               d="m 0,0 c 0.068,-4.194 -2.141,-6.786 -6.559,-6.786 -4.421,0 -6.628,2.592 -6.562,6.786 v 9.828 h 2.255 v -10.37 c 0.067,-2.796 1.735,-4.305 4.307,-4.305 2.569,0 4.237,1.509 4.305,4.305 V 9.828 H 0 Z" />
          </g>
          <g
             transform="translate(413.0421,283.6005)"
             id="g406"
             style="fill:#ffffff">
            <path
               inkscape:connector-curvature="0"
               id="path408"
               style="fill:#ffffff;fill-opacity:1;fill-rule:nonzero;stroke:none"
               d="m 0,0 h 0.044 c 0.723,1.421 2.298,2.007 3.426,2.007 0.79,0 4.284,-0.203 4.284,-3.833 V -9.649 H 5.613 v 7.125 c 0,1.871 -0.79,2.884 -2.595,2.884 0,0 -1.17,0.068 -2.071,-0.833 C 0.629,-0.789 0.044,-1.284 0.044,-3.493 V -9.649 H -2.097 V 1.668 H 0 Z" />
          </g>
        </g>
      </g>
      <path
         inkscape:connector-curvature="0"
         id="path410"
         style="fill:#ffffff;fill-opacity:1;fill-rule:nonzero;stroke:none;stroke-width:0.35277775"
         d="m 108.66956,68.405177 h 0.89923 v 0.819149 h -0.89923 z m 0.0716,1.749424 h 0.7553 v 3.992388 h -0.7553 z" />
      <g
         transform="matrix(0.35277777,0,0,-0.35277777,112.01784,74.146989)"
         id="g412"
         style="fill:#ffffff">
        <path
           inkscape:connector-curvature="0"
           id="path414"
           style="fill:#ffffff;fill-opacity:1;fill-rule:nonzero;stroke:none"
           d="m 0,0 -4.736,11.317 h 2.369 L 1.239,2.345 4.756,11.317 H 7.1 L 2.141,0 Z" />
      </g>
      <g
         id="g416"
         transform="matrix(0.35277777,0,0,-0.35277777,-41.105766,170.79117)"
         style="fill:#ffffff">
        <g
           clip-path="url(#clipPath422)"
           id="g418"
           style="fill:#ffffff">
          <g
             transform="translate(444.8929,279.2046)"
             id="g424"
             style="fill:#ffffff">
            <path
               inkscape:connector-curvature="0"
               id="path426"
               style="fill:#ffffff;fill-opacity:1;fill-rule:nonzero;stroke:none"
               d="m 0,0 c -0.157,-1.983 0.654,-4.035 2.841,-4.035 1.668,0 2.504,0.654 2.752,2.299 H 7.847 C 7.507,-4.305 5.523,-5.59 2.82,-5.59 c -3.63,0 -5.072,2.569 -5.072,5.906 0,3.313 1.669,6.087 5.253,6.087 3.38,-0.068 4.98,-2.211 4.98,-5.344 V 0 Z M 5.728,1.488 C 5.772,3.382 4.914,4.848 2.841,4.848 1.061,4.848 0,3.337 0,1.488 Z" />
          </g>
          <g
             transform="translate(458.2609,273.952)"
             id="g428"
             style="fill:#ffffff">
            <path
               inkscape:connector-curvature="0"
               id="path430"
               style="fill:#ffffff;fill-opacity:1;fill-rule:nonzero;stroke:none"
               d="M 0,0 H -2.141 V 11.317 H 0 V 9.129 h 0.047 c 0.315,1.557 1.758,2.346 3.313,2.346 0.271,0 0.496,-0.022 0.743,-0.022 V 9.423 C 3.809,9.536 3.473,9.536 3.18,9.536 0.475,9.445 0,8.003 0,5.613 Z" />
          </g>
          <g
             transform="translate(468.4297,285.6078)"
             id="g432"
             style="fill:#ffffff">
            <path
               inkscape:connector-curvature="0"
               id="path434"
               style="fill:#ffffff;fill-opacity:1;fill-rule:nonzero;stroke:none"
               d="M 0,0 C 2.14,0 4.553,-0.903 4.395,-3.472 H 2.14 c 0.091,1.443 -1.017,1.917 -2.253,1.917 -1.152,0 -2.075,-0.542 -2.075,-1.804 0,-1.265 1.937,-1.354 2.748,-1.601 1.918,-0.631 4.127,-0.858 4.127,-3.405 0,-2.773 -2.705,-3.629 -5.026,-3.629 -2.368,0 -4.353,1.082 -4.328,3.697 h 2.253 c 0.045,-1.398 0.993,-2.141 2.301,-2.141 1.262,0 2.545,0.496 2.545,1.961 0,2.526 -6.874,0.63 -6.874,5.05 C -4.442,-1.061 -2.053,0 0,0" />
          </g>
        </g>
      </g>
      <path
         inkscape:connector-curvature="0"
         id="path436"
         style="fill:#ffffff;fill-opacity:1;fill-rule:nonzero;stroke:none;stroke-width:0.35277775"
         d="m 126.79316,68.405177 h 0.89888 v 0.819149 h -0.89888 z m 0.072,1.749424 h 0.75565 v 3.992388 h -0.75565 z" />
      <g
         id="g438"
         transform="matrix(0.35277777,0,0,-0.35277777,-41.105766,170.79117)"
         style="fill:#ffffff">
        <g
           clip-path="url(#clipPath444)"
           id="g440"
           style="fill:#ffffff">
          <g
             transform="translate(482.4738,285.2685)"
             id="g446"
             style="fill:#ffffff">
            <path
               inkscape:connector-curvature="0"
               id="path448"
               style="fill:#ffffff;fill-opacity:1;fill-rule:nonzero;stroke:none"
               d="M 0,0 V 2.413 L 2.14,3.089 V 0 L 4.756,0.069 V -1.533 L 2.14,-1.51 v -7.304 c 0,-0.812 0.631,-1.196 1.397,-1.196 0.341,0 0.793,0.047 1.128,0.136 v -1.644 c -0.495,-0.024 -0.971,-0.136 -1.464,-0.136 -0.519,0 -0.923,0.022 -1.443,0.112 -0.34,0.068 -0.901,0.249 -1.263,0.744 C 0.113,-10.257 0,-10.212 0,-8.701 v 7.191 l -1.94,-0.023 v 1.602 z" />
          </g>
        </g>
      </g>
      <g
         transform="matrix(0.35277777,0,0,-0.35277777,133.13921,75.673846)"
         id="g450"
         style="fill:#ffffff">
        <path
           inkscape:connector-curvature="0"
           id="path452"
           style="fill:#ffffff;fill-opacity:1;fill-rule:nonzero;stroke:none"
           d="m 0,0 h -2.185 l 1.713,4.374 -4.712,11.271 h 2.39 L 0.744,6.718 4.351,15.645 H 6.65 Z" />
      </g>
    </g>
  </g>
</svg>
