<?xml version="1.0" encoding="UTF-8" standalone="no"?>
<!-- Created with Inkscape (http://www.inkscape.org/) -->

<svg
   xmlns:dc="http://purl.org/dc/elements/1.1/"
   xmlns:cc="http://creativecommons.org/ns#"
   xmlns:rdf="http://www.w3.org/1999/02/22-rdf-syntax-ns#"
   xmlns:svg="http://www.w3.org/2000/svg"
   xmlns="http://www.w3.org/2000/svg"
   xmlns:sodipodi="http://sodipodi.sourceforge.net/DTD/sodipodi-0.dtd"
   xmlns:inkscape="http://www.inkscape.org/namespaces/inkscape"
   width="94.121147mm"
   height="9.0884361mm"
   viewBox="0 0 94.121147 9.0884361"
   version="1.1"
   id="svg5210"
   inkscape:version="0.92.1 r"
   sodipodi:docname="usu_horizontal_white.svg"
   inkscape:export-filename="/home/jhstagge/Downloads/shiny_examples/shiny-apps-master/my_example4/www/img/usu_horizontal_white.png"
   inkscape:export-xdpi="50.305683"
   inkscape:export-ydpi="50.305683">
  <defs
     id="defs5204">
    <clipPath
       clipPathUnits="userSpaceOnUse"
       id="clipPath258">
      <path
         d="M 0,0 H 612 V 792 H 0 Z"
         id="path256"
         inkscape:connector-curvature="0" />
    </clipPath>
    <clipPath
       clipPathUnits="userSpaceOnUse"
       id="clipPath280">
      <path
         d="M 0,0 H 612 V 792 H 0 Z"
         id="path278"
         inkscape:connector-curvature="0" />
    </clipPath>
  </defs>
  <sodipodi:namedview
     id="base"
     pagecolor="#ffffff"
     bordercolor="#666666"
     borderopacity="1.0"
     inkscape:pageopacity="0.0"
     inkscape:pageshadow="2"
     inkscape:zoom="0.85449591"
     inkscape:cx="293.58103"
     inkscape:cy="-58.539288"
     inkscape:document-units="mm"
     inkscape:current-layer="layer1"
     showgrid="false"
     fit-margin-top="0"
     fit-margin-left="0"
     fit-margin-right="0"
     fit-margin-bottom="0"
     inkscape:window-width="1440"
     inkscape:window-height="849"
     inkscape:window-x="0"
     inkscape:window-y="25"
     inkscape:window-maximized="1" />
  <metadata
     id="metadata5207">
    <rdf:RDF>
      <cc:Work
         rdf:about="">
        <dc:format>image/svg+xml</dc:format>
        <dc:type
           rdf:resource="http://purl.org/dc/dcmitype/StillImage" />
        <dc:title></dc:title>
      </cc:Work>
    </rdf:RDF>
  </metadata>
  <g
     inkscape:label="Layer 1"
     inkscape:groupmode="layer"
     id="layer1"
     transform="translate(-55.748949,-28.628401)">
    <g
       transform="matrix(0.35277777,0,0,-0.35277777,-28.659839,19.436145)"
       id="g5202"
       style="fill:#ffffff">
      <g
         transform="translate(244.89401,-26.56349)"
         id="g202"
         style="fill:#ffffff">
        <path
           inkscape:connector-curvature="0"
           id="path204"
           style="fill:#ffffff;fill-opacity:1;fill-rule:nonzero;stroke:none"
           d="m 0,0 v -11.89 c 0,-1.084 0.091,-2.194 0.644,-3.029 0.749,-1.108 2.053,-1.632 3.413,-1.632 3.511,0 3.992,2.857 3.992,4.852 V 0 h 5.407 v -11.591 c 0,-2.213 -0.305,-4.626 -1.553,-6.096 -1.941,-2.388 -5.519,-2.857 -8.041,-2.857 -9.459,0 -9.487,5.877 -9.487,9.145 L -5.597,0 Z" />
      </g>
      <g
         transform="translate(269.55771,-32.70999)"
         id="g206"
         style="fill:#ffffff">
        <path
           inkscape:connector-curvature="0"
           id="path208"
           style="fill:#ffffff;fill-opacity:1;fill-rule:nonzero;stroke:none"
           d="m 0,0 v -3.34 h -3.358 v -4.825 c 0.027,-1.716 0.027,-2.479 2.022,-2.479 0.422,0 0.674,0 1.306,0.067 v -3.269 c -0.695,-0.109 -1.605,-0.243 -3.391,-0.243 -4.152,0 -4.983,1.381 -4.983,4.075 v 6.674 h -1.944 V 0 h 2.026 v 2.157 l 5.021,2 V 0 Z" />
      </g>
      <g
         transform="translate(330.79101,-32.70999)"
         id="g210"
         style="fill:#ffffff">
        <path
           inkscape:connector-curvature="0"
           id="path212"
           style="fill:#ffffff;fill-opacity:1;fill-rule:nonzero;stroke:none"
           d="m 0,0 v -3.34 h -3.356 v -4.825 c 0.024,-1.716 0.024,-2.479 2.027,-2.479 0.432,0 0.669,0 1.308,0.067 v -3.269 c -0.697,-0.109 -1.611,-0.243 -3.38,-0.243 -4.169,0 -4.995,1.381 -4.995,4.075 v 6.674 h -1.953 V 0 h 2.032 v 2.157 l 5.019,2 V 0 Z" />
      </g>
      <g
         transform="translate(357.07091,-32.70999)"
         id="g214"
         style="fill:#ffffff">
        <path
           inkscape:connector-curvature="0"
           id="path216"
           style="fill:#ffffff;fill-opacity:1;fill-rule:nonzero;stroke:none"
           d="m 0,0 v -3.34 h -3.349 v -4.825 c 0.026,-1.716 0.026,-2.479 2.02,-2.479 0.416,0 0.667,0 1.303,0.067 v -3.269 c -0.696,-0.109 -1.601,-0.243 -3.384,-0.243 -4.163,0 -4.991,1.381 -4.991,4.075 V -3.34 H -10.35 V 0 h 2.025 v 2.157 l 5.025,2 V 0 Z" />
      </g>
      <g
         transform="translate(279.89081,-46.58609)"
         id="g218"
         style="fill:#ffffff">
        <path
           inkscape:connector-curvature="0"
           id="path220"
           style="fill:#ffffff;fill-opacity:1;fill-rule:nonzero;stroke:none"
           d="m 0,0 v 1.968 c -0.629,-0.941 -1.697,-2.249 -4.551,-2.249 -3.415,0 -4.916,1.863 -4.916,4.331 0,3.804 3.524,5.191 9.518,4.939 0.025,1.498 -0.167,2.881 -1.748,2.881 -0.968,0 -1.883,-0.519 -1.858,-2.107 h -4.99 c 0.029,0.641 0.029,1.833 1.074,2.914 1.078,1.109 3.25,1.756 5.774,1.756 1.25,0 3.906,-0.175 5.383,-1.614 0.885,-0.861 1.215,-2.162 1.215,-3.662 V 2.665 L 4.889,-0.004 Z m -4.331,4.517 c 0,-1.021 0.663,-1.881 1.91,-1.881 0.563,0 1.534,0.227 2.05,1.336 C 0.051,4.857 0.051,5.994 0.02,6.582 -2.198,6.544 -4.331,6.527 -4.331,4.517" />
      </g>
      <g
         transform="translate(341.05011,-46.58609)"
         id="g222"
         style="fill:#ffffff">
        <path
           inkscape:connector-curvature="0"
           id="path224"
           style="fill:#ffffff;fill-opacity:1;fill-rule:nonzero;stroke:none"
           d="m 0,0 v 1.968 c -0.638,-0.941 -1.707,-2.249 -4.563,-2.249 -3.412,0 -4.911,1.863 -4.911,4.331 0,3.804 3.525,5.191 9.519,4.939 0.029,1.498 -0.167,2.881 -1.752,2.881 -0.972,0 -1.88,-0.519 -1.851,-2.107 h -4.996 c 0.025,0.641 0.025,1.833 1.087,2.914 1.086,1.109 3.247,1.756 5.76,1.756 1.254,0 3.916,-0.175 5.39,-1.614 0.886,-0.861 1.215,-2.162 1.215,-3.662 V 2.665 L 4.886,-0.004 Z m -4.34,4.517 c 0,-1.021 0.666,-1.881 1.919,-1.881 0.547,0 1.524,0.227 2.05,1.336 0.416,0.885 0.416,2.022 0.385,2.61 C -2.201,6.544 -4.34,6.527 -4.34,4.517" />
      </g>
      <g
         transform="translate(285.96431,-26.56349)"
         id="g226"
         style="fill:#ffffff">
        <path
           inkscape:connector-curvature="0"
           id="path228"
           style="fill:#ffffff;fill-opacity:1;fill-rule:nonzero;stroke:none"
           d="m 0,0 h 5.276 v -7.624 c 0.548,0.563 1.823,1.83 4.35,1.83 1.355,0 2.746,-0.352 3.88,-1.409 1.389,-1.246 1.389,-2.777 1.389,-4.718 v -8.102 H 9.711 v 7.494 c 0,1.162 0,3.436 -2.171,3.436 -1.659,0 -2.043,-1.389 -2.189,-1.94 -0.138,-0.639 -0.138,-1.53 -0.138,-2.692 v -6.298 H 0 Z" />
      </g>
      <g
         transform="translate(308.00691,-40.20179)"
         id="g230"
         style="fill:#ffffff">
        <path
           inkscape:connector-curvature="0"
           id="path232"
           style="fill:#ffffff;fill-opacity:1;fill-rule:nonzero;stroke:none"
           d="m 0,0 c 0.024,-0.811 0.078,-3.11 3.389,-3.11 0.465,0 2.96,0 2.96,2.274 0,0.945 -0.383,1.584 -1.713,1.946 l -4.92,1.277 c -1.383,0.359 -4.958,1.302 -4.958,5.487 0,3.248 2.434,6.271 8.432,6.271 7.825,0 8.155,-4.244 8.18,-6.376 H 5.742 c 0,0.608 0.031,2.774 -2.633,2.774 -1.62,0 -2.636,-0.917 -2.636,-2.114 0,-1.472 1.22,-1.834 2.021,-2.052 L 6.236,5.41 c 2.67,-0.696 5.827,-1.528 5.827,-5.778 0,-4.464 -3.824,-6.459 -8.844,-6.459 -2.079,0 -5.434,0.335 -7.272,2.39 -1.461,1.602 -1.495,3.569 -1.519,4.437 z" />
      </g>
      <g
         transform="translate(362.26831,-40.67229)"
         id="g234"
         style="fill:#ffffff">
        <path
           inkscape:connector-curvature="0"
           id="path236"
           style="fill:#ffffff;fill-opacity:1;fill-rule:nonzero;stroke:none"
           d="m 0,0 c 0,-0.751 0,-3.394 2.652,-3.394 1.391,0 2.254,0.726 2.391,2.031 H 9.896 C 9.51,-4.863 6.233,-6.22 2.632,-6.22 c -4.853,0 -7.461,2.443 -7.461,7.054 0,4.657 2.268,7.685 7.402,7.685 3.889,0 5.681,-1.586 6.638,-3.559 C 9.816,3.774 9.983,2.437 9.983,0 Z M 5.077,2.831 C 5.017,3.627 4.85,5.74 2.573,5.74 0.302,5.74 0.107,3.485 0.05,2.831 Z" />
      </g>
      <g
         transform="translate(390.92111,-38.42429)"
         id="g238"
         style="fill:#ffffff">
        <path
           inkscape:connector-curvature="0"
           id="path240"
           style="fill:#ffffff;fill-opacity:1;fill-rule:nonzero;stroke:none"
           d="m 0,0 c 0.082,-5.21 -2.663,-8.432 -8.158,-8.432 -5.489,0 -8.239,3.222 -8.155,8.432 v 12.217 h 2.806 V -0.672 c 0.083,-3.475 2.156,-5.351 5.349,-5.351 3.198,0 5.272,1.876 5.359,5.351 V 12.217 H 0 Z" />
      </g>
      <g
         transform="translate(397.25611,-34.44119)"
         id="g242"
         style="fill:#ffffff">
        <path
           inkscape:connector-curvature="0"
           id="path244"
           style="fill:#ffffff;fill-opacity:1;fill-rule:nonzero;stroke:none"
           d="m 0,0 h 0.053 c 0.897,1.764 2.862,2.492 4.259,2.492 0.98,0 5.326,-0.254 5.326,-4.764 v -9.726 H 6.979 v 8.857 c 0,2.328 -0.986,3.586 -3.229,3.586 0,0 -1.453,0.084 -2.576,-1.037 -0.389,-0.39 -1.121,-1.005 -1.121,-3.754 v -7.652 H -2.608 V 2.07 H 0 Z" />
      </g>
      <path
         inkscape:connector-curvature="0"
         id="path246"
         style="fill:#ffffff;fill-opacity:1;fill-rule:nonzero;stroke:none"
         d="m 411.57281,-26.206686 h 3.168 v -2.881 h -3.168 z m 0.255,-6.164 h 2.658 v -14.068 h -2.658 z" />
      <g
         transform="translate(423.37251,-46.438886)"
         id="g248"
         style="fill:#ffffff">
        <path
           inkscape:connector-curvature="0"
           id="path250"
           style="fill:#ffffff;fill-opacity:1;fill-rule:nonzero;stroke:none"
           d="m 0,0 -5.884,14.068 h 2.937 L 1.543,2.914 5.915,14.068 H 8.826 L 2.661,0 Z" />
      </g>
      <g
         transform="translate(-12.251188,-242.05769)"
         id="g252"
         style="fill:#ffffff">
        <g
           clip-path="url(#clipPath258)"
           id="g254"
           style="fill:#ffffff">
          <g
             transform="translate(449.1015,202.148)"
             id="g260"
             style="fill:#ffffff">
            <path
               inkscape:connector-curvature="0"
               id="path262"
               style="fill:#ffffff;fill-opacity:1;fill-rule:nonzero;stroke:none"
               d="m 0,0 c -0.192,-2.464 0.815,-5.015 3.536,-5.015 2.069,0 3.112,0.811 3.417,2.857 H 9.756 C 9.335,-5.349 6.867,-6.946 3.504,-6.946 c -4.511,0 -6.303,3.191 -6.303,7.343 0,4.115 2.074,7.564 6.531,7.564 C 7.935,7.878 9.924,5.215 9.924,1.318 V 0 Z M 7.12,1.85 C 7.176,4.204 6.109,6.028 3.536,6.028 1.321,6.028 0,4.148 0,1.85 Z" />
          </g>
          <g
             transform="translate(465.7215,195.6188)"
             id="g264"
             style="fill:#ffffff">
            <path
               inkscape:connector-curvature="0"
               id="path266"
               style="fill:#ffffff;fill-opacity:1;fill-rule:nonzero;stroke:none"
               d="M 0,0 H -2.665 V 14.068 H 0 V 11.35 h 0.056 c 0.391,1.935 2.185,2.914 4.123,2.914 0.33,0 0.614,-0.028 0.924,-0.028 V 11.714 C 4.735,11.855 4.316,11.855 3.953,11.855 0.59,11.744 0,9.949 0,6.98 Z" />
          </g>
          <g
             transform="translate(478.3608,210.1089)"
             id="g268"
             style="fill:#ffffff">
            <path
               inkscape:connector-curvature="0"
               id="path270"
               style="fill:#ffffff;fill-opacity:1;fill-rule:nonzero;stroke:none"
               d="M 0,0 C 2.663,0 5.66,-1.118 5.461,-4.316 H 2.663 c 0.109,1.793 -1.266,2.383 -2.799,2.383 -1.434,0 -2.583,-0.672 -2.583,-2.244 0,-1.568 2.411,-1.68 3.415,-1.986 2.384,-0.787 5.13,-1.069 5.13,-4.232 0,-3.45 -3.359,-4.512 -6.251,-4.512 -2.942,0 -5.404,1.343 -5.376,4.593 h 2.799 c 0.058,-1.738 1.236,-2.662 2.866,-2.662 1.562,0 3.158,0.619 3.158,2.439 0,3.139 -8.543,0.785 -8.543,6.277 C -5.521,-1.318 -2.549,0 0,0" />
          </g>
        </g>
      </g>
      <path
         inkscape:connector-curvature="0"
         id="path272"
         style="fill:#ffffff;fill-opacity:1;fill-rule:nonzero;stroke:none"
         d="m 475.43981,-26.206686 h 3.17 v -2.881 h -3.17 z m 0.252,-6.164 h 2.663 v -14.068 h -2.663 z" />
      <g
         transform="translate(-12.251188,-242.05769)"
         id="g274"
         style="fill:#ffffff">
        <g
           clip-path="url(#clipPath280)"
           id="g276"
           style="fill:#ffffff">
          <g
             transform="translate(495.8182,209.6869)"
             id="g282"
             style="fill:#ffffff">
            <path
               inkscape:connector-curvature="0"
               id="path284"
               style="fill:#ffffff;fill-opacity:1;fill-rule:nonzero;stroke:none"
               d="M 0,0 V 3.001 L 2.661,3.84 V 0 l 3.254,0.086 v -1.995 l -3.254,0.034 v -9.082 c 0,-1.009 0.788,-1.486 1.741,-1.486 0.42,0 0.978,0.056 1.399,0.172 v -2.047 c -0.62,-0.03 -1.207,-0.167 -1.821,-0.167 -0.646,0 -1.152,0.026 -1.792,0.137 -0.425,0.085 -1.121,0.308 -1.572,0.925 C 0.141,-12.751 0,-12.695 0,-10.818 v 8.943 l -2.408,-0.034 v 1.995 z" />
          </g>
        </g>
      </g>
      <g
         transform="translate(497.80411,-51.819286)"
         id="g286"
         style="fill:#ffffff">
        <path
           inkscape:connector-curvature="0"
           id="path288"
           style="fill:#ffffff;fill-opacity:1;fill-rule:nonzero;stroke:none"
           d="m 0,0 h -2.721 l 2.131,5.44 -5.859,14.009 h 2.977 L 0.928,8.35 5.41,19.449 h 2.855 z" />
      </g>
    </g>
  </g>
</svg>
